<?xml version="1.0" encoding="UTF-8"?><svg id="a" xmlns="http://www.w3.org/2000/svg" viewBox="0 0 731.62 253.48"><defs><style>.b,.c,.d,.e,.f,.g,.h,.i,.j,.k,.l,.m,.n,.o,.p,.q,.r,.s{isolation:isolate;}.b,.d,.g,.j,.n{font-family:IBMPlexSans-Regular, 'IBM Plex Sans';}.b,.d,.i,.j,.m,.o{fill:#64748b;}.b,.i,.o{font-size:8px;}.t{stroke-width:2.2px;}.t,.u,.v,.f,.h,.w,.x,.r,.y,.z{fill:none;}.t,.u,.v,.x,.y,.z{stroke-linecap:round;}.t,.u,.aa,.ab,.y,.ac{stroke:#0ea5a4;}.ad{fill:#f1f5f9;}.ad,.ae,.af,.ag{stroke:#e2e8f0;}.ah,.ai,.f{stroke:#6366f1;stroke-miterlimit:10;}.ah,.af,.ac{fill:#fff;}.ai{fill:#eef0fe;}.aj{fill:#e7d3dc;}.ae{fill:#fbfcfd;stroke-dasharray:3 2.5;}.u{stroke-width:2.4px;}.ak,.n,.p,.q{fill:#0f172a;}.al{fill:#a78bfa;}.v{stroke:#cbb6c1;}.v,.am{stroke-width:1.4px;}.an,.ao,.ab{fill:#e9a3b0;}.af,.ab,.x{stroke-width:2px;}.ao{stroke:#d98a9c;}.ao,.ap,.aa{stroke-width:1.2px;}.ao,.e,.o{opacity:.44;}.d,.g{font-size:8.5px;}.aq{fill:#e2e8f0;}.ar{letter-spacing:0em;}.ap,.as{fill:#f6e7ec;}.ap,.as,.w,.x,.r,.at{stroke:#0f172a;}.as{stroke-width:1.7px;}.e{fill:#d98a9c;}.f{opacity:.4;}.aa{fill:#e6f6f5;}.aa,.x{stroke-linejoin:round;}.ag{fill:#f8fafc;}.ag,.y{stroke-width:1.6px;}.au,.k{fill:#0ea5a4;}.av{letter-spacing:0em;}.g,.l,.s{fill:#334155;}.h{stroke:#3e455c;stroke-width:.9px;}.i,.m,.o,.s{font-family:Menlo-Regular, Menlo;}.j{font-size:12.5px;}.w{stroke-width:1.8px;}.aw{letter-spacing:0em;}.k,.l,.p,.q{font-weight:700;}.k,.p{font-family:Menlo-Bold, Menlo;font-size:31px;letter-spacing:-.02em;}.ax{fill:#6366f1;}.l{font-family:Helvetica-Bold, Helvetica;font-size:11px;}.ay{fill:#c4b5fd;opacity:.58;}.m,.s{font-size:9.5px;}.n{font-size:10px;}.az{fill:#7c84d6;}.ba{letter-spacing:-.01em;}.am{fill:#f3e8ee;stroke:#e7d3dc;}.bb{letter-spacing:-.04em;}.bc{fill:#3fa6b6;}.bd{letter-spacing:0em;}.be{letter-spacing:0em;}.bf{letter-spacing:0em;}.bg{letter-spacing:0em;}.bh{letter-spacing:0em;}.q{font-family:IBMPlexSans-Bold, 'IBM Plex Sans';font-size:11.5px;}.bi{letter-spacing:0em;}.bj{letter-spacing:0em;}.bk{letter-spacing:0em;}.bl{letter-spacing:-.01em;}.r{opacity:.5;stroke-width:1.1px;}.bm{letter-spacing:0em;}.bn{letter-spacing:0em;}.bo{letter-spacing:0em;}.at{fill:rgba(255,255,255,.55);}.at,.z{stroke-width:1.9px;}.ac{stroke-width:1.5px;}.bp{letter-spacing:.01em;}.z{stroke:#a78bfa;stroke-dasharray:3 2.4;}</style></defs><rect class="ad" x=".5" y=".5" width="730.62" height="252.48"/><g class="c"><text class="p" transform="translate(4.39 29.96)"><tspan x="0" y="0">raw</tspan></text><text class="k" transform="translate(58.88 29.96)"><tspan x="0" y="0">2</tspan></text><text class="p" transform="translate(77.04 29.96)"><tspan x="0" y="0">features</tspan></text></g><text class="j" transform="translate(5.39 51.96)"><tspan x="0" y="0">slides → </tspan><tspan class="bj" x="48.96" y="0">f</tspan><tspan x="52.96" y="0">oundation-model embeddings</tspan></text><text class="g" transform="translate(34.36 178.97)"><tspan x="0" y="0">cloud or local</tspan></text><text class="d" transform="translate(5.56 190.97)"><tspan class="bn" x="0" y="0">s</tspan><tspan x="4.08" y="0">t</tspan><tspan class="bg" x="7.06" y="0">r</tspan><tspan x="10.14" y="0">eam without d</tspan><tspan class="bg" x="64.74" y="0">o</tspan><tspan x="69.46" y="0">wnloading</tspan></text><rect class="ag" x="125.04" y="65.96" width="466" height="110.01" rx="14" ry="14"/><rect class="af" x="141.04" y="81.97" width="86" height="82" rx="8" ry="8"/><rect class="aq" x="175.04" y="162.97" width="18" height="5" rx="2" ry="2"/><text class="q" transform="translate(170.55 149.97)"><tspan class="ba" x="0" y="0">R</tspan><tspan x="7.58" y="0">ead</tspan></text><rect class="af" x="257.04" y="81.97" width="86" height="82" rx="8" ry="8"/><rect class="aq" x="291.04" y="162.97" width="18" height="5" rx="2" ry="2"/><text class="q" transform="translate(275.76 149.97)"><tspan x="0" y="0">Segment</tspan></text><text class="i" transform="translate(290.41 159.97)"><tspan x="0" y="0">mask</tspan></text><path class="ay" d="M283.04,117.88c0-.58.25-1.12.68-1.51,6.46-6.04,8.62-15.39,17.32-15.39,6.84,0,10.03,6.59,13.94,6.61,1.14,0,2.06.9,2.06,2.04v16.3c0,1.13-.92,2.05-2.05,2.05h-29.91c-1.13,0-2.05-.92-2.05-2.05v-8.05Z"/><path class="z" d="M283.04,116.97c7-6,9-16,18-16,8,0,11,9,16,6"/><rect class="af" x="373.04" y="81.97" width="86" height="82" rx="8" ry="8"/><rect class="aq" x="407.04" y="162.97" width="18" height="5" rx="2" ry="2"/><text class="q" transform="translate(400.39 149.97)"><tspan class="ba" x="0" y="0">P</tspan><tspan class="be" x="7.37" y="0">a</tspan><tspan class="bk" x="13.85" y="0">t</tspan><tspan class="aw" x="18.2" y="0">ch</tspan></text><rect class="ap" x="401.14" y="99.07" width="9" height="9" rx="1.4" ry="1.4"/><rect class="ap" x="411.54" y="99.07" width="9" height="9" rx="1.4" ry="1.4"/><rect class="ap" x="421.94" y="99.07" width="9" height="9" rx="1.4" ry="1.4"/><rect class="ap" x="401.14" y="109.47" width="9" height="9" rx="1.4" ry="1.4"/><rect class="ap" x="411.54" y="109.47" width="9" height="9" rx="1.4" ry="1.4"/><rect class="ap" x="421.94" y="109.47" width="9" height="9" rx="1.4" ry="1.4"/><rect class="ap" x="401.14" y="119.87" width="9" height="9" rx="1.4" ry="1.4"/><rect class="ap" x="411.54" y="119.87" width="9" height="9" rx="1.4" ry="1.4"/><rect class="ap" x="421.94" y="119.87" width="9" height="9" rx="1.4" ry="1.4"/><rect class="ab" x="410.94" y="108.87" width="10.2" height="10.2" rx="1.6" ry="1.6"/><rect class="af" x="489.04" y="81.97" width="86" height="82" rx="8" ry="8"/><rect class="aq" x="523.04" y="162.97" width="18" height="5" rx="2" ry="2"/><text class="q" transform="translate(512.87 149.97)"><tspan x="0" y="0">Embed</tspan></text><path class="x" d="M528.44,102.19h-4v23.56h4"/><path class="x" d="M535.64,102.19h4v23.56h-4"/><circle class="ak" cx="532.04" cy="107.57" r="2.15"/><circle class="au" cx="532.04" cy="114.2" r="2.15"/><circle class="ak" cx="532.04" cy="120.82" r="2.15"/><path class="au" d="M137.04,122.97l-7-4.4v8.8l7-4.4Z"/><line class="t" x1="231.04" y1="122.97" x2="247.04" y2="122.97"/><path class="au" d="M253.04,122.97l-7-4.4v8.8l7-4.4Z"/><line class="t" x1="347.04" y1="122.97" x2="363.04" y2="122.97"/><path class="au" d="M369.04,122.97l-7-4.4v8.8l7-4.4Z"/><line class="t" x1="463.04" y1="122.97" x2="479.04" y2="122.97"/><path class="au" d="M485.04,122.97l-7-4.4v8.8l7-4.4Z"/><path class="ai" d="M645.33,103.73v26.49c0,2.61,7.36,4.73,16.43,4.73s16.43-2.12,16.43-4.73v-26.49h-32.86Z"/><ellipse class="ah" cx="661.76" cy="103.73" rx="16.43" ry="4.73"/><ellipse class="f" cx="661.76" cy="110.82" rx="16.04" ry="3.78"/><text class="q" transform="translate(614.14 149.97)"><tspan class="ba" x="0" y="0">.</tspan><tspan x="3.39" y="0">embedding</tspan><tspan class="bm" x="64.07" y="0">s</tspan><tspan class="bp" x="69.77" y="0">.</tspan><tspan class="ar" x="73.45" y="0">zarr</tspan></text><text class="d" transform="translate(601.61 160.08)"><tspan class="bi" x="0" y="0">f</tspan><tspan x="2.72" y="0">eatu</tspan><tspan class="bg" x="19.74" y="0">r</tspan><tspan x="22.81" y="0">es + </tspan><tspan class="bf" x="40.73" y="0">c</tspan><tspan x="44.96" y="0">oo</tspan><tspan class="bd" x="54.48" y="0">r</tspan><tspan x="57.54" y="0">ds + p</tspan><tspan class="bg" x="80.66" y="0">r</tspan><tspan class="bo" x="83.73" y="0">ov</tspan><tspan x="92.54" y="0">enan</tspan><tspan class="bd" x="111.4" y="0">c</tspan><tspan x="115.62" y="0">e</tspan></text><line class="y" x1="141.04" y1="189.97" x2="292.04" y2="189.97"/><line class="y" x1="424.04" y1="189.97" x2="575.04" y2="189.97"/><line class="y" x1="141.04" y1="189.97" x2="141.04" y2="194.97"/><line class="y" x1="575.04" y1="189.97" x2="575.04" y2="194.97"/><text class="l" transform="translate(308.84 193.97)"><tspan x="0" y="0">swappable models</tspan></text><rect class="ad" x="151.74" y="204.97" width="31.1" height="18" rx="5" ry="5"/><text class="s" transform="translate(158.72 217.37)"><tspan x="0" y="0">UNI</tspan></text><rect class="ad" x="240.26" y="204.97" width="59.6" height="18" rx="5" ry="5"/><text class="s" transform="translate(247.18 217.37)"><tspan x="0" y="0">Virchow2</tspan></text><rect class="ad" x="307.96" y="204.97" width="44.65" height="18" rx="5" ry="5"/><text class="s" transform="translate(313.12 217.5)"><tspan x="0" y="0">KRONOS</tspan></text><rect class="ad" x="360.7" y="204.97" width="59.6" height="18" rx="5" ry="5"/><text class="s" transform="translate(367.63 217.37)"><tspan x="0" y="0">GigaPath</tspan></text><rect class="ad" x="428.4" y="204.97" width="65.3" height="18" rx="5" ry="5"/><text class="s" transform="translate(435.31 217.37)"><tspan x="0" y="0">H-optimus</tspan></text><rect class="ae" x="501.79" y="204.97" width="42.5" height="18" rx="5" ry="5"/><text class="m" transform="translate(508.75 217.37)"><tspan x="0" y="0">+more</tspan></text><circle class="r" cx="292.29" cy="240.14" r="5.6"/><path class="al" d="M292.29,234.54c-3.09,0-5.6,2.51-5.6,5.6s2.51,5.6,5.6,5.6v-11.2Z"/><path class="an" d="M292.29,234.54c3.09,0,5.6,2.51,5.6,5.6s-2.51,5.6-5.6,5.6h0v-11.2Z"/><text class="n" transform="translate(303.29 244.14)"><tspan x="0" y="0">H&amp;E</tspan></text><circle class="au" cx="390.29" cy="236.14" r="3"/><circle class="bc" cx="398.29" cy="236.14" r="3"/><circle class="az" cx="390.29" cy="244.14" r="3"/><circle class="ax" cx="398.29" cy="244.14" r="3"/><text class="n" transform="translate(407.29 244.14)"><tspan x="0" y="0">mu</tspan><tspan class="bh" x="14.41" y="0">l</tspan><tspan class="av" x="17.08" y="0">tipl</tspan><tspan class="bl" x="31.61" y="0">e</tspan><tspan x="36.98" y="0">x</tspan></text><rect class="w" x="283.04" y="97.97" width="34" height="30" rx="4" ry="4"/><text class="o" transform="translate(329.15 76.24)"><tspan x="0" y="0">raw2features</tspan></text><line class="u" x1="583.04" y1="122.97" x2="627.04" y2="122.97"/><path class="au" d="M633.04,122.97l-7-4.4v8.8l7-4.4Z"/><rect class="as" x="171.04" y="101.97" width="22" height="22" rx="3" ry="3"/><line class="h" x1="171.89" y1="112.97" x2="192.19" y2="112.97"/><line class="h" x1="182.04" y1="123.12" x2="182.04" y2="102.82"/><line class="t" x1="195.69" y1="126.12" x2="200.29" y2="130.72"/><circle class="at" cx="190.29" cy="120.72" r="7.5"/><rect class="af" x="16.62" y="81.97" width="86" height="82" rx="8" ry="8"/><circle class="ac" cx="15.86" cy="81.97" r="10"/><path class="aa" d="M11.57,85.68c-1.78-.6-2.74-2.53-2.14-4.31.42-1.25,1.53-2.14,2.84-2.29,1.1-1.98,3.6-2.68,5.58-1.58.92.52,1.61,1.37,1.92,2.38,1.6.11,2.81,1.5,2.7,3.1-.11,1.6-1.5,2.81-3.1,2.7h-7.8Z"/><rect class="am" x="27.73" y="102.82" width="61.78" height="33.15" rx="6" ry="6"/><rect class="aj" x="27.73" y="102.82" width="9.79" height="33.15" rx="4.9" ry="4.9"/><line class="v" x1="31.5" y1="110.36" x2="33.01" y2="110.36"/><line class="v" x1="31.5" y1="114.88" x2="33.01" y2="114.88"/><line class="v" x1="31.5" y1="119.4" x2="33.01" y2="119.4"/><line class="v" x1="31.5" y1="123.92" x2="33.01" y2="123.92"/><line class="v" x1="31.5" y1="128.44" x2="33.01" y2="128.44"/><path class="ao" d="M44.69,117.56c-3.87-5.66,5.81-10.76,17.42-9.06,10.65,1.13,21.29,3.96,21.29,10.19s-8.71,11.32-20.32,10.76c-9.68-.57-15.48-2.83-18.39-6.23-1.94-2.26,1.94-3.4,0-5.66Z"/><circle class="e" cx="56.26" cy="114.88" r="2.41" transform="translate(-66.14 152.01) rotate(-80.78)"/><circle class="e" cx="63.61" cy="118.64" r="1.86"/><text class="q" transform="translate(47.91 149.97)"><tspan x="0" y="0">Slide</tspan></text><text class="b" transform="translate(42.38 160.21)"><tspan x="0" y="0">OME</tspan><tspan class="bb" x="16.82" y="0">-</tspan><tspan x="19.7" y="0">Zarr</tspan></text><line class="u" x1="94.51" y1="122.97" x2="131.04" y2="122.97"/><path class="ad" d="M197.57,204.97h27.97c3.66,0,6.63,2.24,6.63,5v8c0,2.76-2.97,5-6.63,5h-27.97c-3.66,0-6.63-2.24-6.63-5v-8c0-2.76,2.97-5,6.63-5Z"/><text class="s" transform="translate(194.21 217.37)"><tspan x="0" y="0">UNI2-h</tspan></text></svg>